<?xml version="1.0" encoding="utf-8"?>
<!-- Generator: Adobe Illustrator 25.3.1, SVG Export Plug-In . SVG Version: 6.00 Build 0)  -->
<svg version="1.1" id="Calque_1" xmlns="http://www.w3.org/2000/svg" xmlns:xlink="http://www.w3.org/1999/xlink" x="0px" y="0px"
	 viewBox="0 0 841.9 595.3" style="enable-background:new 0 0 841.9 595.3;" xml:space="preserve">
<style type="text/css">
	.st0{fill:#FF3939;}
	.st1{fill:#FFFFFF;}
</style>
<path class="st0" d="M85.2,130.2c0,0,416.8,298.1,706.5,318.7"/>
<g>
	<path class="st1" d="M108.6,141.9l-4.1,8c-3.2,6.2-10.7,9-17,6c-5.7-2.7-11.6-4.1-17.8-4.1c-4.5,0-8.6,1.2-12.5,3.7
		c-3.8,2.4-5.7,5.8-5.7,10c0,2.9,1.2,5.5,3.6,7.8c2.4,2.3,4.6,3.9,6.7,4.8c2.1,0.9,5,1.9,8.6,3l10.9,3.3c12.8,3.8,22.7,9.1,29.8,16
		c7.1,6.9,10.6,16.5,10.6,28.8c0,19.8-5.7,34.5-16.9,44.1c-12.2,10.3-27.6,15.4-46.5,15.4c-16.3,0-31.8-3.9-46.4-11.8
		c-6.3-3.5-8.8-11.5-5.3-17.9l5.3-10c3.6-6.7,12.1-8.7,18.6-4.7c8.9,5.5,17.6,8.3,26.3,8.3c5.5,0,10.3-1.4,14.4-4.3
		s6.2-6.9,6.2-12.3c0-7.4-6.9-13.1-20.6-17.1c-0.5-0.1-2.2-0.6-5.2-1.5c-7.8-2.2-14-4.2-18.5-6.1s-9-4.5-13.5-7.9s-7.7-7.7-9.5-12.9
		c-1.9-5.2-2.8-11.7-2.8-19.3c0-16.5,5.3-29.8,15.8-39.8c10.6-10,24.1-15.1,40.6-15.1c8.2,0,17.1,1.2,26.4,3.7
		c4.1,1.1,8,2.3,11.7,3.7C109,126.3,112.1,134.9,108.6,141.9z"/>
	<path class="st1" d="M206.9,171.3v98.1c0,8.2-6.6,14.8-14.8,14.8h-13c-8.2,0-14.8-6.6-14.8-14.8v-98.1c0-8.2-6.6-14.8-14.8-14.8
		H144c-8.2,0-14.8-6.6-14.8-14.8v-6.5c0-8.2,6.6-14.8,14.8-14.8h83.3c8.2,0,14.8,6.6,14.8,14.8v6.5c0,8.2-6.6,14.8-14.8,14.8h-5.6
		C213.6,156.6,206.9,163.2,206.9,171.3z"/>
	<path class="st1" d="M372.4,120.5H384c8.5,0,15.5,6.9,15.5,15.5v76.6c0,13.3-1,24.5-3.2,33.6c-2.1,9-6.8,17.1-14,24.2
		c-12.3,12.2-30.4,18.2-54.3,18.2s-42-6.1-54.3-18.2c-7.2-7.1-11.9-15.2-14-24.2s-3.2-20.2-3.2-33.6V136c0-8.5,6.9-15.5,15.5-15.5
		h11.6c8.5,0,15.5,6.9,15.5,15.5v70.7c0,5.2,0.1,9.5,0.3,13c0.2,3.5,0.9,7.4,1.9,11.7c1.1,4.3,2.6,7.8,4.6,10.4
		c1.9,2.6,4.8,4.8,8.6,6.6c3.8,1.8,8.2,2.7,13.5,2.7c5.2,0,9.7-0.9,13.5-2.7c3.8-1.8,6.6-4,8.6-6.6c1.9-2.6,3.5-6.1,4.6-10.4
		c1.1-4.3,1.7-8.2,1.9-11.7c0.2-3.5,0.3-7.8,0.3-13V136C356.9,127.4,363.9,120.5,372.4,120.5z"/>
	<path class="st1" d="M426.4,274.6V130c0-5.3,4.3-9.5,9.5-9.5h50.8c22.9,0,42.4,7.9,58.7,23.8c16.3,15.9,24.4,35.2,24.4,58.1
		s-8.1,42.2-24.4,58.1c-16.3,15.8-35.9,23.8-58.7,23.8H436C430.7,284.2,426.4,279.9,426.4,274.6z M469,166.1v72.5
		c0,5.3,4.3,9.5,9.5,9.5l0,0c13.6,0,24.9-3.8,33.7-11.5c8.9-7.7,13.3-19.1,13.3-34.3c0-14.3-4.3-25.6-12.8-33.7
		c-8.5-8.1-19.8-12.2-33.9-12.2h-0.5C473.3,156.6,469,160.8,469,166.1z"/>
	<path class="st1" d="M632.3,169.5v101.6c0,7.3-7.6,13.2-16.8,13.2h-8.9c-9.3,0-16.8-5.9-16.8-13.2V169.5c0-7.3,7.6-13.2,16.8-13.2
		h8.9C624.7,156.3,632.3,162.2,632.3,169.5z"/>
	<path class="st1" d="M698,125.6c13.8-7,28.5-10.5,44.3-10.5s30.5,3.5,44.3,10.5c13.8,7,24.9,17.1,33.4,30.1s12.8,27.6,12.8,43.6
		c0,26.5-8.5,48.2-25.5,65c-17,16.9-38.7,25.3-65,25.3s-48-8.4-65-25.3s-25.5-38.5-25.5-65c0-16.1,4.3-30.6,12.8-43.6
		C673.2,142.7,684.3,132.6,698,125.6z M774.9,169.4c-9.1-8.7-20-13-32.6-13s-23.4,4.3-32.6,13c-9.2,8.7-13.7,18.7-13.7,30.2
		c0,13.9,4.5,25.5,13.5,34.8c9,9.3,19.9,14,32.8,14s23.8-4.7,32.8-14c9-9.3,13.5-20.9,13.5-34.8C788.6,188.1,784,178,774.9,169.4z"
		/>
</g>
<path class="st1" d="M503.5,364.4h-45.9c-0.4,0-0.8,0.3-0.8,0.7l-2.6,16.9c-0.1,0.5,0.4,1,0.9,0.9l12.4-1
	c16.5-1.3,30.3,3.8,41.3,15.4c11.1,11.6,16.6,26,16.6,43.2c0,18-7,32.7-21.1,44.3c-11.4,9.1-27.4,13.7-47.8,13.7
	c-19,0-35.8-4.3-50.4-12.9c-1.9-1.1-2.8-3.2-2.4-5.3l4.8-30.8c0.4-2.5,3.3-3.7,5.3-2.1c11.8,9.3,24.4,14.4,37.8,15.1
	c7.6,0.4,15.3-1.4,21.2-6.3c5.6-4.6,8.3-10.5,8.3-17.7c0-9.1-3.6-16.1-10.8-20.9c-7.2-4.8-15.5-7.1-25.1-7.1
	c-8.3,0-16.1,1.2-23.4,3.6c-3.6,1.2-7.1-1.7-6.5-5.4l11.9-73.9c0.6-3.7,3.8-6.3,7.4-6.3h70.1c4.7,0,8.6,3.8,8.6,8.6v17.4
	C513.5,359.9,509.1,364.4,503.5,364.4z"/>
<path class="st1" d="M628.3,451c-6.6,0-11.9-5.3-11.9-11.9v-17c0-6.6,5.3-11.9,11.9-11.9h13.1v-70.1c0-6.5-5.2-11.7-11.7-11.7h-42.6
	c-6.5,0-11.7,5.2-11.7,11.7v12.6c0,6.5,5.2,11.7,11.7,11.7s11.7,5.2,11.7,11.7v104.2c0,6.5,5.2,11.7,11.7,11.7h19.1
	c6.5,0,11.7-5.2,11.7-11.7V451H628.3z"/>
<path class="st1" d="M678.6,451h-17c-6.6,0-11.9-5.3-11.9-11.9v-17c0-6.6,5.3-11.9,11.9-11.9h17c6.6,0,11.9,5.3,11.9,11.9v17
	C690.5,445.7,685.2,451,678.6,451z"/>
<path class="st1" d="M384.6,477.6l-20.9-138.5c-0.9-6.2-6.2-10.7-12.4-10.7h-23c-5.2,0-9.8,3.1-11.7,7.9l-20,49.7
	c-4.3,10.6-19.4,10.5-23.5-0.2l-18.7-49.2c-1.9-4.9-6.6-8.1-11.8-8.1H220c-6.2,0-11.4,4.4-12.4,10.5l-11.8,69.3h10.3
	c6.6,0,11.9,5.3,11.9,11.9v17c0,6.6-5.3,11.9-11.9,11.9h-17c-0.1,0-0.2,0-0.3,0l-4.8,28.4c-1.3,7.7,4.6,14.7,12.4,14.7h16.5
	c6.2,0,11.6-4.6,12.5-10.8l12.1-83.5h0.5l34.4,86.3c1.9,4.8,6.6,7.9,11.7,7.9s9.7-3.1,11.6-7.7l36-86.5h0.5l10.5,83.2
	c0.8,6.3,6.2,11,12.5,11H372C379.8,492,385.7,485.2,384.6,477.6z"/>
<path class="st1" d="M174.8,449h-17c-6.6,0-11.9-5.3-11.9-11.9v-17c0-6.6,5.3-11.9,11.9-11.9h17c6.6,0,11.9,5.3,11.9,11.9v17
	C186.7,443.7,181.4,449,174.8,449z"/>
<path class="st1" d="M631.5,163.1h-17c-6.6,0-11.9-5.3-11.9-11.9v-17c0-6.6,5.3-11.9,11.9-11.9h17c6.6,0,11.9,5.3,11.9,11.9v17
	C643.4,157.7,638.1,163.1,631.5,163.1z"/>
</svg>
